<?xml version="1.0" encoding="UTF-8"?>
<svg version="1.1" xmlns="http://www.w3.org/2000/svg" width="1350" height="1350">
<path d="M0 0 C1.55630127 0.28206299 1.55630127 0.28206299 3.14404297 0.56982422 C28.693308 5.33684606 53.7148334 13.42625155 77 25 C77.85352051 25.41862305 78.70704102 25.83724609 79.58642578 26.26855469 C92.38566412 32.58968686 104.36619307 39.73156169 116 48 C116.57041016 48.40460449 117.14082031 48.80920898 117.72851562 49.22607422 C136.27102974 62.4990277 154.47903549 78.32318328 168.703125 96.15234375 C170.19901909 98.00694714 171.72917866 99.83458714 173.296875 101.62890625 C185.97895981 116.19672589 196.13885799 132.88700754 205 150 C205.43376953 150.82032715 205.86753906 151.6406543 206.31445312 152.48583984 C223.318228 184.90922496 232.39820837 220.70226323 236 257 C236.19722656 258.90845703 236.19722656 258.90845703 236.3984375 260.85546875 C242.18933012 325.10307471 222.17525932 392.69389655 185 445 C184.59539551 445.57041016 184.19079102 446.14082031 183.77392578 446.72851562 C170.5009723 465.27102974 154.67681672 483.47903549 136.84765625 497.703125 C134.99305286 499.19901909 133.16541286 500.72917866 131.37109375 502.296875 C116.80327411 514.97895981 100.11299246 525.13885799 83 534 C82.17967285 534.43376953 81.3593457 534.86753906 80.51416016 535.31445312 C55.34326153 548.51481121 27.90788635 556.9307155 0 562 C-0.90153809 562.17499023 -1.80307617 562.34998047 -2.73193359 562.53027344 C-32.25434116 568.07980473 -66.52462386 567.5427678 -96 562 C-97.03753418 561.81195801 -98.07506836 561.62391602 -99.14404297 561.43017578 C-124.693308 556.66315394 -149.7148334 548.57374845 -173 537 C-173.85352051 536.58137695 -174.70704102 536.16275391 -175.58642578 535.73144531 C-188.38566412 529.41031314 -200.36619307 522.26843831 -212 514 C-212.57041016 513.59539551 -213.14082031 513.19079102 -213.72851562 512.77392578 C-232.27102974 499.5009723 -250.47903549 483.67681672 -264.703125 465.84765625 C-266.19901909 463.99305286 -267.72917866 462.16541286 -269.296875 460.37109375 C-281.97895981 445.80327411 -292.13885799 429.11299246 -301 412 C-301.6506543 410.76950928 -301.6506543 410.76950928 -302.31445312 409.51416016 C-315.51481121 384.34326153 -323.9307155 356.90788635 -329 329 C-329.17499023 328.09846191 -329.34998047 327.19692383 -329.53027344 326.26806641 C-335.07980473 296.74565884 -334.5427678 262.47537614 -329 233 C-328.81195801 231.96246582 -328.62391602 230.92493164 -328.43017578 229.85595703 C-323.66315394 204.306692 -315.57374845 179.2851666 -304 156 C-303.58137695 155.14647949 -303.16275391 154.29295898 -302.73144531 153.41357422 C-296.41031314 140.61433588 -289.26843831 128.63380693 -281 117 C-280.59539551 116.42958984 -280.19079102 115.85917969 -279.77392578 115.27148438 C-266.5009723 96.72897026 -250.67681672 78.52096451 -232.84765625 64.296875 C-230.99305286 62.80098091 -229.16541286 61.27082134 -227.37109375 59.703125 C-212.80327411 47.02104019 -196.11299246 36.86114201 -179 28 C-178.17967285 27.56623047 -177.3593457 27.13246094 -176.51416016 26.68554688 C-151.34326153 13.48518879 -123.90788635 5.0692845 -96 0 C-95.09846191 -0.17499023 -94.19692383 -0.34998047 -93.26806641 -0.53027344 C-63.74565884 -6.07980473 -29.47537614 -5.5427678 0 0 Z M-220.50390625 89.7265625 C-222.14162692 91.21819541 -223.79495423 92.69290781 -225.46484375 94.1484375 C-237.64736493 104.81054924 -247.41910949 117.02812015 -257 130 C-258.0209375 131.37671875 -258.0209375 131.37671875 -259.0625 132.78125 C-280.98006735 163.22231576 -303.67055958 207.63649494 -303 246 C-302.03698975 246.01981934 -301.07397949 246.03963867 -300.08178711 246.06005859 C-296.48274151 246.13657179 -292.88407631 246.22521561 -289.28540039 246.31738281 C-287.73274284 246.35548484 -286.18000267 246.39036928 -284.62719727 246.421875 C-282.38528053 246.46793685 -280.14392355 246.52585878 -277.90234375 246.5859375 C-277.21663803 246.59748871 -276.53093231 246.60903992 -275.82444763 246.62094116 C-272.41156355 246.72366376 -269.64971814 247.11139639 -266.38110352 248.15087891 C-262.3399318 249.16576772 -260.84224116 248.42190792 -257 247 C-254.15273517 246.68181258 -251.31625331 246.67235044 -248.453125 246.6640625 C-247.64188171 246.6574057 -246.83063843 246.6507489 -245.99481201 246.64389038 C-244.28367363 246.63380262 -242.57249621 246.62907216 -240.86132812 246.62939453 C-238.27145896 246.62503611 -235.68331661 246.5887182 -233.09375 246.55078125 C-222.0277757 246.47146006 -213.7793274 247.22904868 -204.73144531 254.14697266 C-204.0277179 254.68262848 -203.32399048 255.2182843 -202.59893799 255.77017212 C-202.07128845 256.17601532 -201.54363892 256.58185852 -201 257 C-200.99635437 255.84900818 -200.99270874 254.69801636 -200.98895264 253.512146 C-200.95189233 242.62577011 -200.89399957 231.73967421 -200.81609726 220.85351181 C-200.77671291 215.25779862 -200.74448013 209.66224068 -200.72900391 204.06640625 C-200.71377773 198.65861002 -200.67922672 193.25124086 -200.63169098 187.84363556 C-200.61693849 185.78818744 -200.60896254 183.73267832 -200.60811615 181.67717743 C-200.59359431 164.08196245 -198.28332513 149.80364745 -186 136.3125 C-176.39780821 127.13345565 -163.70621762 122.68523403 -150.58320618 122.73257446 C-149.65464205 122.72804335 -148.72607793 122.72351224 -147.7693755 122.71884382 C-144.66822075 122.70621729 -141.56724201 122.70781908 -138.46606445 122.70947266 C-136.23822301 122.70348626 -134.01038364 122.69668045 -131.782547 122.68911743 C-125.73688294 122.67145999 -119.69127551 122.66676211 -113.64558816 122.66548586 C-109.86559413 122.66406337 -106.08561446 122.65979187 -102.30562401 122.65449142 C-89.79080505 122.63694524 -77.27601824 122.62765107 -64.76118956 122.62915237 C-64.08726507 122.62923228 -63.41334058 122.6293122 -62.71899414 122.62939453 C-62.04424021 122.62947629 -61.36948628 122.62955805 -60.67428526 122.62964229 C-49.7478815 122.63045456 -38.82161581 122.61132967 -27.89525197 122.5831178 C-16.6581222 122.55433411 -5.42105755 122.54094615 5.81611663 122.54230535 C12.11764922 122.54281442 18.41902559 122.53716166 24.72052574 122.51594925 C30.65085918 122.49653128 36.58088796 122.49646699 42.51123238 122.51098251 C44.68154217 122.51306739 46.85187122 122.50838902 49.02214813 122.4962616 C66.76399084 122.40358291 81.07281964 124.6042015 94.6875 137 C103.77593078 146.50740099 108.28482783 159.14381866 108.31884766 172.14819336 C108.32889328 173.03679047 108.3389389 173.92538757 108.34928894 174.84091187 C108.38000412 177.75721634 108.39712353 180.67342951 108.4140625 183.58984375 C108.43278353 185.62008951 108.45235764 187.65032757 108.4727478 189.68055725 C108.52397612 195.00859018 108.56365159 200.33664831 108.60089111 205.66479492 C108.64098912 211.10797309 108.692055 216.55104727 108.7421875 221.99414062 C108.83883665 232.66268727 108.92327661 243.33129275 109 254 C109.74765625 253.57847656 110.4953125 253.15695312 111.265625 252.72265625 C112.25046875 252.17480469 113.2353125 251.62695312 114.25 251.0625 C115.71179688 250.24458984 115.71179688 250.24458984 117.203125 249.41015625 C122.28218667 246.84934443 126.83981058 246.83995793 132.45703125 246.83203125 C133.27821945 246.82870285 134.09940765 246.82537445 134.94548035 246.82194519 C136.68117718 246.81688941 138.4168837 246.81453645 140.15258789 246.81469727 C142.79264582 246.8125164 145.43228187 246.79436204 148.07226562 246.77539062 C149.76301941 246.7724552 151.45377517 246.7704714 153.14453125 246.76953125 C153.92705765 246.76234573 154.70958405 246.75516022 155.51582336 246.74775696 C159.26856765 246.76320597 162.04238026 247.01312728 165.6784668 248.1394043 C169.67091413 249.17383111 171.20827816 248.43706197 175 247 C177.52263617 246.77772481 180.0542567 246.64669784 182.5859375 246.5859375 C183.28772125 246.56657135 183.989505 246.5472052 184.71255493 246.5272522 C186.93324999 246.46792431 189.15399823 246.42126083 191.375 246.375 C192.88934434 246.33677698 194.40366794 246.29772278 195.91796875 246.2578125 C199.61178831 246.16226266 203.3057647 246.07806063 207 246 C206.498927 238.22908983 205.29272235 230.87061176 203.4375 223.3125 C203.04050903 221.69226929 203.04050903 221.69226929 202.63549805 220.03930664 C192.10751915 178.25230994 172.38462117 140.33955575 143.2734375 108.49609375 C141.78180459 106.85837308 140.30709219 105.20504577 138.8515625 103.53515625 C128.18945076 91.35263507 115.97187985 81.58089051 103 72 C102.0821875 71.319375 101.164375 70.63875 100.21875 69.9375 C22.57713799 14.03553936 -81.13148576 9.43379293 -220.50390625 89.7265625 Z M-305 263 C-306.50037038 277.53954388 -306.50037038 277.53954388 -305 292 C-301.8815675 293.0394775 -299.72524414 293.11494838 -296.45703125 293.09765625 C-294.84731445 293.09282227 -294.84731445 293.09282227 -293.20507812 293.08789062 C-292.08552734 293.07951172 -290.96597656 293.07113281 -289.8125 293.0625 C-288.68134766 293.05798828 -287.55019531 293.05347656 -286.38476562 293.04882812 C-283.58979073 293.03703498 -280.7949218 293.0205765 -278 293 C-278.32484375 291.8346875 -278.6496875 290.669375 -278.984375 289.46875 C-279.98997453 285.43213847 -280.26753348 281.67296772 -280.25 277.5 C-280.25515625 276.2728125 -280.2603125 275.045625 -280.265625 273.78125 C-279.97206592 269.60235009 -279.12267218 266.02736371 -278 262 C-281.93748458 261.97101184 -285.87494179 261.95320536 -289.8125 261.9375 C-290.93205078 261.92912109 -292.05160156 261.92074219 -293.20507812 261.91210938 C-294.27822266 261.90888672 -295.35136719 261.90566406 -296.45703125 261.90234375 C-297.44678955 261.89710693 -298.43654785 261.89187012 -299.45629883 261.88647461 C-302.12392734 261.88930041 -302.12392734 261.88930041 -305 263 Z M-249 262 C-248.67515625 263.1653125 -248.3503125 264.330625 -248.015625 265.53125 C-247.01002547 269.56786153 -246.73246652 273.32703228 -246.75 277.5 C-246.74484375 278.7271875 -246.7396875 279.954375 -246.734375 281.21875 C-247.02793408 285.39764991 -247.87732782 288.97263629 -249 293 C-245.14597871 293.08770383 -241.29221709 293.14062735 -237.4375 293.1875 C-235.80844727 293.22520508 -235.80844727 293.22520508 -234.14648438 293.26367188 C-227.95153745 293.32016075 -223.46960792 292.98984306 -218 290 C-218.556875 289.7525 -219.11375 289.505 -219.6875 289.25 C-222.62213077 287.66371309 -224.71250653 286.47811792 -227 284 C-227.97694411 279.54112687 -227.53226209 276.06452418 -225.5 272 C-221.99110649 269.19288519 -219.44928232 269.22246412 -215 269 C-216.26278132 265.21165605 -217.52112952 264.77988722 -221 263 C-224.25419197 261.96063664 -227.23548573 261.88423131 -230.640625 261.90234375 C-232.24550781 261.90717773 -232.24550781 261.90717773 -233.8828125 261.91210938 C-234.99398437 261.92048828 -236.10515625 261.92886719 -237.25 261.9375 C-238.37664062 261.94201172 -239.50328125 261.94652344 -240.6640625 261.95117188 C-243.44276217 261.96294603 -246.22135409 261.9793916 -249 262 Z M120 267 C120 267.66 120 268.32 120 269 C120.73605469 269.02578125 121.47210937 269.0515625 122.23046875 269.078125 C126.62080235 269.33330952 130.17931158 269.61379369 134.1875 271.5 C136.51818668 274.71474025 136.66367343 276.9021932 136.40625 280.80859375 C135.75745969 284.30831838 134.81181536 285.8054124 132 288 C128.99892965 288.68699201 126.07339321 288.92776213 123 289 C125.22582215 291.55969547 126.68372321 292.39615465 130 293 C131.87877624 293.08026745 133.7601615 293.10765872 135.640625 293.09765625 C136.71054687 293.09443359 137.78046875 293.09121094 138.8828125 293.08789062 C139.99398438 293.07951172 141.10515625 293.07113281 142.25 293.0625 C143.37664062 293.05798828 144.50328125 293.05347656 145.6640625 293.04882812 C148.44276217 293.03705397 151.22135409 293.0206084 154 293 C153.67515625 291.8346875 153.3503125 290.669375 153.015625 289.46875 C152.01002547 285.43213847 151.73246652 281.67296772 151.75 277.5 C151.74484375 276.2728125 151.7396875 275.045625 151.734375 273.78125 C152.02793408 269.60235009 152.87732782 266.02736371 154 262 C150.14597871 261.91229617 146.29221709 261.85937265 142.4375 261.8125 C141.35146484 261.78736328 140.26542969 261.76222656 139.14648438 261.73632812 C131.27777664 261.66457699 126.59640661 262.60239559 120 267 Z M183 262 C183.32484375 263.1653125 183.6496875 264.330625 183.984375 265.53125 C184.98997453 269.56786153 185.26753348 273.32703228 185.25 277.5 C185.25515625 278.7271875 185.2603125 279.954375 185.265625 281.21875 C184.97206592 285.39764991 184.12267218 288.97263629 183 293 C186.95831809 293.02892857 190.91660917 293.04677427 194.875 293.0625 C196.00292969 293.07087891 197.13085938 293.07925781 198.29296875 293.08789062 C199.90751953 293.09272461 199.90751953 293.09272461 201.5546875 293.09765625 C203.04718018 293.10551147 203.04718018 293.10551147 204.56982422 293.11352539 C207.00960773 293.1639415 207.00960773 293.1639415 209 292 C211.43796496 283.11222902 210.45570246 271.98140954 209 263 C206.39048764 261.69524382 204.47298715 261.88698428 201.5546875 261.90234375 C200.47832031 261.90556641 199.40195312 261.90878906 198.29296875 261.91210938 C196.60107422 261.92467773 196.60107422 261.92467773 194.875 261.9375 C193.73933594 261.94201172 192.60367188 261.94652344 191.43359375 261.95117188 C188.62234362 261.96298385 185.8111977 261.97945493 183 262 Z M-264 272 C-265.01687046 276.77762638 -265.01687046 276.77762638 -264.0625 281.4375 C-263.5365625 282.2109375 -263.5365625 282.2109375 -263 283 C-261.98312954 278.22237362 -261.98312954 278.22237362 -262.9375 273.5625 C-263.288125 273.046875 -263.63875 272.53125 -264 272 Z M168 272 C166.98312954 276.77762638 166.98312954 276.77762638 167.9375 281.4375 C168.4634375 282.2109375 168.4634375 282.2109375 169 283 C170.01687046 278.22237362 170.01687046 278.22237362 169.0625 273.5625 C168.711875 273.046875 168.36125 272.53125 168 272 Z M-204.9375 300.75 C-214.24330175 308.60082691 -223.97918901 308.58234766 -235.60522461 308.41162109 C-238.19229361 308.37493202 -240.77793117 308.37060396 -243.36523438 308.37109375 C-245.02865808 308.36126611 -246.69207221 308.34961064 -248.35546875 308.3359375 C-249.11917282 308.33371185 -249.88287689 308.33148621 -250.66972351 308.32919312 C-254.35062748 308.26467615 -257.10113915 307.9683776 -260.6652832 306.85400391 C-264.67031445 305.8283359 -266.19374497 306.57030389 -270 308 C-272.70405991 308.22675628 -275.31838181 308.37022235 -278.0234375 308.4140625 C-279.14270126 308.44311172 -279.14270126 308.44311172 -280.28457642 308.4727478 C-282.64793777 308.53212065 -285.01134897 308.5787578 -287.375 308.625 C-288.98569732 308.66321884 -290.59637506 308.7022728 -292.20703125 308.7421875 C-296.13786016 308.83778676 -300.06878463 308.921972 -304 309 C-299.63275491 362.64868416 -275.42253916 413.96197081 -239.2734375 453.50390625 C-237.78180459 455.14162692 -236.30709219 456.79495423 -234.8515625 458.46484375 C-224.18945076 470.64736493 -211.97187985 480.41910949 -199 490 C-198.0821875 490.680625 -197.164375 491.36125 -196.21875 492.0625 C-140.84684347 531.9302727 -70.76143343 546.08197232 -3.875 535.3125 C44.03817321 527.05708248 88.66715448 505.03527297 124.50390625 472.2734375 C126.14162692 470.78180459 127.79495423 469.30709219 129.46484375 467.8515625 C141.64736493 457.18945076 151.41910949 444.97187985 161 432 C161.680625 431.0821875 162.36125 430.164375 163.0625 429.21875 C184.25958535 399.77835368 198.12548217 365.68868843 205.375 330.25 C205.53073486 329.48921143 205.68646973 328.72842285 205.84692383 327.94458008 C207.04111748 321.66874041 207.55248705 315.3679335 208 309 C207.03698975 308.98018066 206.07397949 308.96036133 205.08178711 308.93994141 C201.48274151 308.86342821 197.88407631 308.77478439 194.28540039 308.68261719 C192.73274284 308.64451516 191.18000267 308.60963072 189.62719727 308.578125 C187.38528053 308.53206315 185.14392355 308.47414122 182.90234375 308.4140625 C182.21663803 308.40251129 181.53093231 308.39096008 180.82444763 308.37905884 C177.41156355 308.27633624 174.64971814 307.88860361 171.38110352 306.84912109 C167.3399318 305.83423228 165.84224116 306.57809208 162 308 C159.15273517 308.31818742 156.31625331 308.32764956 153.453125 308.3359375 C152.64188171 308.3425943 151.83063843 308.3492511 150.99481201 308.35610962 C149.28367363 308.36619738 147.57249621 308.37092784 145.86132812 308.37060547 C143.27145896 308.37496389 140.68331661 308.4112818 138.09375 308.44921875 C126.61878497 308.5281254 118.91543019 306.96090294 109 301 C108.99635437 302.10087952 108.99270874 303.20175903 108.98895264 304.33599854 C108.95188263 314.75146496 108.89397953 325.16663901 108.81609726 335.58188248 C108.77672295 340.93545949 108.74448534 346.28887448 108.72900391 351.64257812 C108.71377099 356.8169646 108.67920845 361.99090535 108.63169098 367.16509247 C108.61694533 369.13122414 108.60896293 371.09741948 108.60811615 373.06360626 C108.59318252 390.36437965 106.05877426 404.44298355 94 417.6875 C84.39780821 426.86654435 71.70621762 431.31476597 58.58320618 431.26742554 C57.19035999 431.27422221 57.19035999 431.27422221 55.7693755 431.28115618 C52.66822075 431.29378271 49.56724201 431.29218092 46.46606445 431.29052734 C44.23822301 431.29651374 42.01038364 431.30331955 39.782547 431.31088257 C33.73688294 431.32854001 27.69127551 431.33323789 21.64558816 431.33451414 C17.86559413 431.33593663 14.08561446 431.34020813 10.30562401 431.34550858 C-2.20919495 431.36305476 -14.72398176 431.37234893 -27.23881044 431.37084763 C-27.91273493 431.37076772 -28.58665942 431.3706878 -29.28100586 431.37060547 C-29.95575979 431.37052371 -30.63051372 431.37044195 -31.32571474 431.37035771 C-42.2521185 431.36954544 -53.17838419 431.38867033 -64.10474803 431.4168822 C-75.3418778 431.44566589 -86.57894245 431.45905385 -97.81611663 431.45769465 C-104.11764922 431.45718558 -110.41902559 431.46283834 -116.72052574 431.48405075 C-122.65085918 431.50346872 -128.58088796 431.50353301 -134.51123238 431.48901749 C-136.68154217 431.48693261 -138.85187122 431.49161098 -141.02214813 431.5037384 C-158.76399084 431.59641709 -173.07281964 429.3957985 -186.6875 417 C-195.83953885 407.42605865 -200.28537876 394.75174229 -200.31884766 381.66821289 C-200.32889328 380.76010864 -200.3389389 379.85200439 -200.34928894 378.91638184 C-200.38001164 375.93514601 -200.39712568 372.95399954 -200.4140625 369.97265625 C-200.43278292 367.89757016 -200.45235699 365.82249161 -200.4727478 363.74742126 C-200.52398254 358.30101984 -200.56365461 352.85459377 -200.60089111 347.40808105 C-200.64098507 341.84425805 -200.6920528 336.28053686 -200.7421875 330.71679688 C-200.83884428 319.81126952 -200.92328182 308.90568457 -201 298 C-202.73744817 298 -203.7249817 299.59739437 -204.9375 300.75 Z " fill="#005AE2" transform="translate(758,395)"/>
<path d="M0 0 C1.55630127 0.28206299 1.55630127 0.28206299 3.14404297 0.56982422 C28.693308 5.33684606 53.7148334 13.42625155 77 25 C77.85352051 25.41862305 78.70704102 25.83724609 79.58642578 26.26855469 C92.38566412 32.58968686 104.36619307 39.73156169 116 48 C116.57041016 48.40460449 117.14082031 48.80920898 117.72851562 49.22607422 C136.27102974 62.4990277 154.47903549 78.32318328 168.703125 96.15234375 C170.19901909 98.00694714 171.72917866 99.83458714 173.296875 101.62890625 C185.97895981 116.19672589 196.13885799 132.88700754 205 150 C205.43376953 150.82032715 205.86753906 151.6406543 206.31445312 152.48583984 C223.318228 184.90922496 232.39820837 220.70226323 236 257 C236.19722656 258.90845703 236.19722656 258.90845703 236.3984375 260.85546875 C242.18933012 325.10307471 222.17525932 392.69389655 185 445 C184.59539551 445.57041016 184.19079102 446.14082031 183.77392578 446.72851562 C170.5009723 465.27102974 154.67681672 483.47903549 136.84765625 497.703125 C134.99305286 499.19901909 133.16541286 500.72917866 131.37109375 502.296875 C116.80327411 514.97895981 100.11299246 525.13885799 83 534 C82.17967285 534.43376953 81.3593457 534.86753906 80.51416016 535.31445312 C55.34326153 548.51481121 27.90788635 556.9307155 0 562 C-0.90153809 562.17499023 -1.80307617 562.34998047 -2.73193359 562.53027344 C-32.25434116 568.07980473 -66.52462386 567.5427678 -96 562 C-97.03753418 561.81195801 -98.07506836 561.62391602 -99.14404297 561.43017578 C-124.693308 556.66315394 -149.7148334 548.57374845 -173 537 C-173.85352051 536.58137695 -174.70704102 536.16275391 -175.58642578 535.73144531 C-188.38566412 529.41031314 -200.36619307 522.26843831 -212 514 C-212.57041016 513.59539551 -213.14082031 513.19079102 -213.72851562 512.77392578 C-232.27102974 499.5009723 -250.47903549 483.67681672 -264.703125 465.84765625 C-266.19901909 463.99305286 -267.72917866 462.16541286 -269.296875 460.37109375 C-281.97895981 445.80327411 -292.13885799 429.11299246 -301 412 C-301.6506543 410.76950928 -301.6506543 410.76950928 -302.31445312 409.51416016 C-315.51481121 384.34326153 -323.9307155 356.90788635 -329 329 C-329.17499023 328.09846191 -329.34998047 327.19692383 -329.53027344 326.26806641 C-335.07980473 296.74565884 -334.5427678 262.47537614 -329 233 C-328.81195801 231.96246582 -328.62391602 230.92493164 -328.43017578 229.85595703 C-323.66315394 204.306692 -315.57374845 179.2851666 -304 156 C-303.58137695 155.14647949 -303.16275391 154.29295898 -302.73144531 153.41357422 C-296.41031314 140.61433588 -289.26843831 128.63380693 -281 117 C-280.59539551 116.42958984 -280.19079102 115.85917969 -279.77392578 115.27148438 C-266.5009723 96.72897026 -250.67681672 78.52096451 -232.84765625 64.296875 C-230.99305286 62.80098091 -229.16541286 61.27082134 -227.37109375 59.703125 C-212.80327411 47.02104019 -196.11299246 36.86114201 -179 28 C-178.17967285 27.56623047 -177.3593457 27.13246094 -176.51416016 26.68554688 C-151.34326153 13.48518879 -123.90788635 5.0692845 -96 0 C-95.09846191 -0.17499023 -94.19692383 -0.34998047 -93.26806641 -0.53027344 C-63.74565884 -6.07980473 -29.47537614 -5.5427678 0 0 Z M-220.50390625 89.7265625 C-222.14162692 91.21819541 -223.79495423 92.69290781 -225.46484375 94.1484375 C-237.64736493 104.81054924 -247.41910949 117.02812015 -257 130 C-258.0209375 131.37671875 -258.0209375 131.37671875 -259.0625 132.78125 C-280.98006735 163.22231576 -303.67055958 207.63649494 -303 246 C-302.03698975 246.01981934 -301.07397949 246.03963867 -300.08178711 246.06005859 C-296.48274151 246.13657179 -292.88407631 246.22521561 -289.28540039 246.31738281 C-287.73274284 246.35548484 -286.18000267 246.39036928 -284.62719727 246.421875 C-282.38528053 246.46793685 -280.14392355 246.52585878 -277.90234375 246.5859375 C-277.21663803 246.59748871 -276.53093231 246.60903992 -275.82444763 246.62094116 C-272.41156355 246.72366376 -269.64971814 247.11139639 -266.38110352 248.15087891 C-262.3399318 249.16576772 -260.84224116 248.42190792 -257 247 C-254.15273517 246.68181258 -251.31625331 246.67235044 -248.453125 246.6640625 C-247.64188171 246.6574057 -246.83063843 246.6507489 -245.99481201 246.64389038 C-244.28367363 246.63380262 -242.57249621 246.62907216 -240.86132812 246.62939453 C-238.27145896 246.62503611 -235.68331661 246.5887182 -233.09375 246.55078125 C-215.93006121 246.42776335 -215.93006121 246.42776335 -209 251 C-208.41108978 251.38186462 -207.82217957 251.76372925 -207.21542358 252.15716553 C-204.47431442 254.16215028 -202.38926748 255.76953084 -201.34277344 259.07748413 C-201.07501805 261.52532206 -201.02912524 263.88164768 -201.0703125 266.34375 C-201.06361542 267.23106812 -201.05691833 268.11838623 -201.05001831 269.03259277 C-201.0452715 270.9018096 -201.05807344 272.77114397 -201.08740234 274.64013672 C-201.12491071 277.49320809 -201.08773644 280.33857319 -201.04296875 283.19140625 C-201.04759472 285.01303776 -201.05656398 286.8346645 -201.0703125 288.65625 C-201.04905807 289.92680237 -201.04905807 289.92680237 -201.02737427 291.22302246 C-201.12312739 294.69915376 -201.2476855 297.06434009 -203.47154236 299.83016968 C-205.24017559 301.39022907 -207.02254396 302.71796365 -209 304 C-209.72485596 304.47775879 -210.44971191 304.95551758 -211.1965332 305.44775391 C-219.04495302 308.92196772 -227.18650868 308.53524866 -235.60522461 308.41162109 C-238.19229361 308.37493202 -240.77793117 308.37060396 -243.36523438 308.37109375 C-245.02865808 308.36126611 -246.69207221 308.34961064 -248.35546875 308.3359375 C-249.11917282 308.33371185 -249.88287689 308.33148621 -250.66972351 308.32919312 C-254.35062748 308.26467615 -257.10113915 307.9683776 -260.6652832 306.85400391 C-264.67031445 305.8283359 -266.19374497 306.57030389 -270 308 C-272.70405991 308.22675628 -275.31838181 308.37022235 -278.0234375 308.4140625 C-279.14270126 308.44311172 -279.14270126 308.44311172 -280.28457642 308.4727478 C-282.64793777 308.53212065 -285.01134897 308.5787578 -287.375 308.625 C-288.98569732 308.66321884 -290.59637506 308.7022728 -292.20703125 308.7421875 C-296.13786016 308.83778676 -300.06878463 308.921972 -304 309 C-299.63275491 362.64868416 -275.42253916 413.96197081 -239.2734375 453.50390625 C-237.78180459 455.14162692 -236.30709219 456.79495423 -234.8515625 458.46484375 C-224.18945076 470.64736493 -211.97187985 480.41910949 -199 490 C-198.0821875 490.680625 -197.164375 491.36125 -196.21875 492.0625 C-140.84684347 531.9302727 -70.76143343 546.08197232 -3.875 535.3125 C44.03817321 527.05708248 88.66715448 505.03527297 124.50390625 472.2734375 C126.14162692 470.78180459 127.79495423 469.30709219 129.46484375 467.8515625 C141.64736493 457.18945076 151.41910949 444.97187985 161 432 C161.680625 431.0821875 162.36125 430.164375 163.0625 429.21875 C184.25958535 399.77835368 198.12548217 365.68868843 205.375 330.25 C205.53073486 329.48921143 205.68646973 328.72842285 205.84692383 327.94458008 C207.04111748 321.66874041 207.55248705 315.3679335 208 309 C207.03698975 308.98018066 206.07397949 308.96036133 205.08178711 308.93994141 C201.48274151 308.86342821 197.88407631 308.77478439 194.28540039 308.68261719 C192.73274284 308.64451516 191.18000267 308.60963072 189.62719727 308.578125 C187.38528053 308.53206315 185.14392355 308.47414122 182.90234375 308.4140625 C182.21663803 308.40251129 181.53093231 308.39096008 180.82444763 308.37905884 C177.41156355 308.27633624 174.64971814 307.88860361 171.38110352 306.84912109 C167.3399318 305.83423228 165.84224116 306.57809208 162 308 C159.15273517 308.31818742 156.31625331 308.32764956 153.453125 308.3359375 C152.64188171 308.3425943 151.83063843 308.3492511 150.99481201 308.35610962 C149.28367363 308.36619738 147.57249621 308.37092784 145.86132812 308.37060547 C143.27145896 308.37496389 140.68331661 308.4112818 138.09375 308.44921875 C127.72497363 308.5205119 118.15841301 308.2800771 110 301 C109.45169067 298.89530945 109.45169067 298.89530945 109.38720703 296.44018555 C109.35523224 295.51880295 109.32325745 294.59742035 109.29031372 293.64811707 C109.27958832 292.65435562 109.26886292 291.66059418 109.2578125 290.63671875 C109.23975555 289.61197952 109.22169861 288.5872403 109.20309448 287.53144836 C109.17406751 285.36198631 109.15631044 283.19234874 109.14892578 281.02270508 C109.12514765 277.70808269 109.02687144 274.40093654 108.92578125 271.08789062 C108.90684949 268.97920301 108.89238096 266.87046964 108.8828125 264.76171875 C108.84374786 263.77403 108.80468323 262.78634125 108.76443481 261.76872253 C108.8024274 258.85933082 108.94675033 256.71687877 110 254 C116.72249694 247.88762942 123.71945016 246.8443612 132.45703125 246.83203125 C133.27821945 246.82870285 134.09940765 246.82537445 134.94548035 246.82194519 C136.68117718 246.81688941 138.4168837 246.81453645 140.15258789 246.81469727 C142.79264582 246.8125164 145.43228187 246.79436204 148.07226562 246.77539062 C149.76301941 246.7724552 151.45377517 246.7704714 153.14453125 246.76953125 C153.92705765 246.76234573 154.70958405 246.75516022 155.51582336 246.74775696 C159.26856765 246.76320597 162.04238026 247.01312728 165.6784668 248.1394043 C169.67091413 249.17383111 171.20827816 248.43706197 175 247 C177.52263617 246.77772481 180.0542567 246.64669784 182.5859375 246.5859375 C183.28772125 246.56657135 183.989505 246.5472052 184.71255493 246.5272522 C186.93324999 246.46792431 189.15399823 246.42126083 191.375 246.375 C192.88934434 246.33677698 194.40366794 246.29772278 195.91796875 246.2578125 C199.61178831 246.16226266 203.3057647 246.07806063 207 246 C206.498927 238.22908983 205.29272235 230.87061176 203.4375 223.3125 C203.04050903 221.69226929 203.04050903 221.69226929 202.63549805 220.03930664 C192.10751915 178.25230994 172.38462117 140.33955575 143.2734375 108.49609375 C141.78180459 106.85837308 140.30709219 105.20504577 138.8515625 103.53515625 C128.18945076 91.35263507 115.97187985 81.58089051 103 72 C102.0821875 71.319375 101.164375 70.63875 100.21875 69.9375 C22.57713799 14.03553936 -81.13148576 9.43379293 -220.50390625 89.7265625 Z M-305 263 C-306.50037038 277.53954388 -306.50037038 277.53954388 -305 292 C-301.8815675 293.0394775 -299.72524414 293.11494838 -296.45703125 293.09765625 C-294.84731445 293.09282227 -294.84731445 293.09282227 -293.20507812 293.08789062 C-292.08552734 293.07951172 -290.96597656 293.07113281 -289.8125 293.0625 C-288.68134766 293.05798828 -287.55019531 293.05347656 -286.38476562 293.04882812 C-283.58979073 293.03703498 -280.7949218 293.0205765 -278 293 C-278.32484375 291.8346875 -278.6496875 290.669375 -278.984375 289.46875 C-279.98997453 285.43213847 -280.26753348 281.67296772 -280.25 277.5 C-280.25515625 276.2728125 -280.2603125 275.045625 -280.265625 273.78125 C-279.97206592 269.60235009 -279.12267218 266.02736371 -278 262 C-281.93748458 261.97101184 -285.87494179 261.95320536 -289.8125 261.9375 C-290.93205078 261.92912109 -292.05160156 261.92074219 -293.20507812 261.91210938 C-294.27822266 261.90888672 -295.35136719 261.90566406 -296.45703125 261.90234375 C-297.44678955 261.89710693 -298.43654785 261.89187012 -299.45629883 261.88647461 C-302.12392734 261.88930041 -302.12392734 261.88930041 -305 263 Z M-249 262 C-248.67515625 263.1653125 -248.3503125 264.330625 -248.015625 265.53125 C-247.01002547 269.56786153 -246.73246652 273.32703228 -246.75 277.5 C-246.74484375 278.7271875 -246.7396875 279.954375 -246.734375 281.21875 C-247.02793408 285.39764991 -247.87732782 288.97263629 -249 293 C-245.14597871 293.08770383 -241.29221709 293.14062735 -237.4375 293.1875 C-235.80844727 293.22520508 -235.80844727 293.22520508 -234.14648438 293.26367188 C-227.95153745 293.32016075 -223.46960792 292.98984306 -218 290 C-218.556875 289.7525 -219.11375 289.505 -219.6875 289.25 C-222.62213077 287.66371309 -224.71250653 286.47811792 -227 284 C-227.97694411 279.54112687 -227.53226209 276.06452418 -225.5 272 C-221.99110649 269.19288519 -219.44928232 269.22246412 -215 269 C-216.26278132 265.21165605 -217.52112952 264.77988722 -221 263 C-224.25419197 261.96063664 -227.23548573 261.88423131 -230.640625 261.90234375 C-232.24550781 261.90717773 -232.24550781 261.90717773 -233.8828125 261.91210938 C-234.99398437 261.92048828 -236.10515625 261.92886719 -237.25 261.9375 C-238.37664062 261.94201172 -239.50328125 261.94652344 -240.6640625 261.95117188 C-243.44276217 261.96294603 -246.22135409 261.9793916 -249 262 Z M120 267 C120 267.66 120 268.32 120 269 C120.73605469 269.02578125 121.47210937 269.0515625 122.23046875 269.078125 C126.62080235 269.33330952 130.17931158 269.61379369 134.1875 271.5 C136.51818668 274.71474025 136.66367343 276.9021932 136.40625 280.80859375 C135.75745969 284.30831838 134.81181536 285.8054124 132 288 C128.99892965 288.68699201 126.07339321 288.92776213 123 289 C125.22582215 291.55969547 126.68372321 292.39615465 130 293 C131.87877624 293.08026745 133.7601615 293.10765872 135.640625 293.09765625 C136.71054687 293.09443359 137.78046875 293.09121094 138.8828125 293.08789062 C139.99398438 293.07951172 141.10515625 293.07113281 142.25 293.0625 C143.37664062 293.05798828 144.50328125 293.05347656 145.6640625 293.04882812 C148.44276217 293.03705397 151.22135409 293.0206084 154 293 C153.67515625 291.8346875 153.3503125 290.669375 153.015625 289.46875 C152.01002547 285.43213847 151.73246652 281.67296772 151.75 277.5 C151.74484375 276.2728125 151.7396875 275.045625 151.734375 273.78125 C152.02793408 269.60235009 152.87732782 266.02736371 154 262 C150.14597871 261.91229617 146.29221709 261.85937265 142.4375 261.8125 C141.35146484 261.78736328 140.26542969 261.76222656 139.14648438 261.73632812 C131.27777664 261.66457699 126.59640661 262.60239559 120 267 Z M183 262 C183.32484375 263.1653125 183.6496875 264.330625 183.984375 265.53125 C184.98997453 269.56786153 185.26753348 273.32703228 185.25 277.5 C185.25515625 278.7271875 185.2603125 279.954375 185.265625 281.21875 C184.97206592 285.39764991 184.12267218 288.97263629 183 293 C186.95831809 293.02892857 190.91660917 293.04677427 194.875 293.0625 C196.00292969 293.07087891 197.13085938 293.07925781 198.29296875 293.08789062 C199.90751953 293.09272461 199.90751953 293.09272461 201.5546875 293.09765625 C203.04718018 293.10551147 203.04718018 293.10551147 204.56982422 293.11352539 C207.00960773 293.1639415 207.00960773 293.1639415 209 292 C211.43796496 283.11222902 210.45570246 271.98140954 209 263 C206.39048764 261.69524382 204.47298715 261.88698428 201.5546875 261.90234375 C200.47832031 261.90556641 199.40195312 261.90878906 198.29296875 261.91210938 C196.60107422 261.92467773 196.60107422 261.92467773 194.875 261.9375 C193.73933594 261.94201172 192.60367188 261.94652344 191.43359375 261.95117188 C188.62234362 261.96298385 185.8111977 261.97945493 183 262 Z M-264 272 C-265.01687046 276.77762638 -265.01687046 276.77762638 -264.0625 281.4375 C-263.5365625 282.2109375 -263.5365625 282.2109375 -263 283 C-261.98312954 278.22237362 -261.98312954 278.22237362 -262.9375 273.5625 C-263.288125 273.046875 -263.63875 272.53125 -264 272 Z M168 272 C166.98312954 276.77762638 166.98312954 276.77762638 167.9375 281.4375 C168.4634375 282.2109375 168.4634375 282.2109375 169 283 C170.01687046 278.22237362 170.01687046 278.22237362 169.0625 273.5625 C168.711875 273.046875 168.36125 272.53125 168 272 Z " fill="#FFFFFF" transform="translate(758,395)"/>
<path d="M0 0 C0 47.85 0 95.7 0 145 C-8.58 145 -17.16 145 -26 145 C-26.33 105.73 -26.66 66.46 -27 26 C-34.26 30.62 -41.52 35.24 -49 40 C-57.296875 44.921875 -57.296875 44.921875 -61 47 C-61.2922343 43.14745277 -61.4685333 39.29775692 -61.625 35.4375 C-61.70878906 34.35146484 -61.79257812 33.26542969 -61.87890625 32.14648438 C-62.11966365 24.2255659 -62.11966365 24.2255659 -59.13378906 20.95727539 C-56.50376929 19.12761679 -53.78681991 17.57916683 -51 16 C-49.14038918 14.62669047 -47.2968786 13.23135406 -45.46875 11.81640625 C-43.48110366 10.39572359 -41.49149519 8.97778234 -39.5 7.5625 C-38.10587891 6.46518555 -38.10587891 6.46518555 -36.68359375 5.34570312 C-24.32146588 -3.19612845 -17.17693781 0 0 0 Z " fill="#FCFDFE" transform="translate(736,600)"/>
</svg>
